<?xml version="1.0" encoding="utf-8"?>
<!-- Generator: Adobe Illustrator 26.0.0, SVG Export Plug-In . SVG Version: 6.00 Build 0)  -->
<svg version="1.1" id="Layer_1" xmlns="http://www.w3.org/2000/svg" xmlns:xlink="http://www.w3.org/1999/xlink" x="0px" y="0px"
	 viewBox="0 0 377.7 425.4" style="enable-background:new 0 0 377.7 425.4;" xml:space="preserve">
<style type="text/css">
	.st0{fill:none;stroke:#000000;stroke-width:1.1339;stroke-linecap:round;stroke-linejoin:bevel;stroke-miterlimit:10;}
	.st1{fill:none;stroke:#000000;stroke-width:0.7087;stroke-linecap:round;stroke-linejoin:bevel;stroke-miterlimit:10;}
	.st2{font-family:'Arial-BoldMT';}
	.st3{font-size:5.2203px;}
	.st4{font-family:'ArialMT';}
	.st5{font-size:6.7118px;}
	.st6{font-size:4.4745px;}
	.st7{fill:none;stroke:#000000;stroke-width:0.4252;stroke-linecap:round;stroke-linejoin:bevel;stroke-miterlimit:10;}
	.st8{fill:none;stroke:#000000;stroke-width:0.1417;stroke-linecap:round;stroke-linejoin:bevel;stroke-miterlimit:10;}
	.st9{font-size:10.2162px;}
	.st10{font-size:15px;}
	.st11{fill:none;stroke:#000000;stroke-width:0.5669;stroke-linecap:round;stroke-linejoin:bevel;stroke-miterlimit:10;}
	.st12{font-size:7.4576px;}
	.st13{enable-background:new    ;}
	
		.st14{fill-rule:evenodd;clip-rule:evenodd;stroke:#000000;stroke-width:1.1339;stroke-linecap:round;stroke-linejoin:bevel;stroke-miterlimit:10;}
</style>
<desc>Created by Proteus Design Suite</desc>
<g transform="matrix(1,0,0,1,0,0)">
	<path vector-effect="none" class="st0" d="M279.1,122.5v18.1h54.6v132.8h-30.1"/>
</g>
<g transform="matrix(1,0,0,1,0,0)">
	<path vector-effect="none" class="st0" d="M79,377.1v18.3h224.7v-40.1"/>
</g>
<g transform="matrix(1,0,0,1,0,0)">
	<path vector-effect="none" class="st0" d="M70,377.1v27.2h240.1v-39.9h-2.7"/>
</g>
<g transform="matrix(1,0,0,1,0,0)">
	<path vector-effect="none" class="st0" d="M188.2,149.7h-72.7v114.6h15.4"/>
</g>
<g transform="matrix(1,0,0,1,0,0)">
	<path vector-effect="none" class="st0" d="M270,122.5H161v36.3"/>
</g>
<g transform="matrix(1,0,0,1,0,0)">
	<path vector-effect="none" class="st0" d="M51.8,377.1v36.3h263.7V149.7h-109"/>
</g>
<g transform="matrix(1,0,0,1,0,0)">
	<path vector-effect="none" class="st0" d="M206.5,149.7h-18.3"/>
</g>
<g transform="matrix(1,0,0,1,0,0)">
	<path vector-effect="none" class="st0" d="M297.4,122.5v9h-90.9v18.3"/>
</g>
<g transform="matrix(1,0,0,1,0,0)">
	<path vector-effect="none" class="st0" d="M161,158.9h-36.5v18.1"/>
</g>
<g transform="matrix(1,0,0,1,0,0)">
	<path vector-effect="none" class="st0" d="M42.6,86v90.9h45.5"/>
</g>
<g transform="matrix(1,0,0,1,0,0)">
	<path vector-effect="none" class="st0" d="M42.6,77h-9.1"/>
</g>
<g transform="matrix(1,0,0,1,0,0)">
	<path vector-effect="none" class="st0" d="M106.4,40.5H33.5V77"/>
</g>
<g transform="matrix(1,0,0,1,0,0)">
	<path vector-effect="none" class="st0" d="M303.7,337h2.7V158.9H179.1v-45.5H88.1v18.1H79"/>
</g>
<g transform="matrix(1,0,0,1,0,0)">
	<path vector-effect="none" class="st0" d="M88.1,176.9h18.3"/>
</g>
<g transform="matrix(1,0,0,1,0,0)">
	<path vector-effect="none" class="st0" d="M106.4,176.9h18.1"/>
</g>
<g transform="matrix(1,0,0,1,0,0)">
	<path vector-effect="none" class="st0" d="M79,149.7h27.4v27.2"/>
</g>
<g transform="matrix(1,0,0,1,0,0)">
	<path vector-effect="none" class="st0" d="M124.5,176.9v105.6"/>
</g>
<g transform="matrix(1,0,0,1,0,0)">
	<path vector-effect="none" class="st0" d="M124.5,282.6h6.4"/>
</g>
<g transform="matrix(1,0,0,1,0,0)">
	<path vector-effect="none" class="st0" d="M60.9,377.1v9.1h54.6V282.6h9"/>
</g>
<g transform="matrix(1,0,0,1,0,0)">
	<path vector-effect="none" class="st0" d="M33.5,77v81.8h-9v27.2h81.8v132.8h24.5"/>
</g>
<g transform="matrix(1,0,0,1,0,0)">
	<path vector-effect="none" class="st0" d="M143.6,179.8v194.6h11.8l4.7,6.3h89l4.7-6.3h38.1V177.8H143.6V179.8"/>
</g>
<g transform="matrix(1,0,0,1,0,0)">
	<line vector-effect="none" class="st1" x1="253.7" y1="234.2" x2="253.7" y2="369.8"/>
</g>
<g transform="matrix(0,1,-1,0,6078,-1326)">
	<text transform="matrix(1 0 0 1 1623.6045 5822.8506)" class="st2 st3">DIGITAL  (PWM~)</text>
</g>
<g transform="matrix(1,0,0,1,0,0)">
</g>
<g transform="matrix(1,0,0,1,0,0)">
	<line vector-effect="none" class="st1" x1="168.1" y1="369.8" x2="168.1" y2="314.3"/>
</g>
<g transform="matrix(0,1,-1,0,5692,-758)">
	<text transform="matrix(1 0 0 1 1071.8955 5522.2461)" class="st2 st3">ANALOG IN</text>
</g>
<g transform="matrix(1,0,0,1,0,0)">
</g>
<g transform="matrix(1,0,0,1,0,0)">
</g>
<g transform="matrix(1,0,0,1,0,0)">
	<text transform="matrix(1 0 0 1 268.9345 239.7793)" class="st4 st5">13</text>
</g>
<g transform="matrix(1,0,0,1,0,0)">
</g>
<g transform="matrix(1,0,0,1,0,0)">
	<text transform="matrix(1 0 0 1 268.9345 248.7285)" class="st4 st5">12</text>
</g>
<g transform="matrix(1,0,0,1,0,0)">
</g>
<g transform="matrix(1,0,0,1,0,0)">
	<text transform="matrix(1 0 0 1 265.5332 257.8603)" class="st4 st5">~11</text>
</g>
<g transform="matrix(1,0,0,1,0,0)">
</g>
<g transform="matrix(1,0,0,1,0,0)">
	<text transform="matrix(1 0 0 1 265.1758 266.9912)" class="st4 st5">~10</text>
</g>
<g transform="matrix(1,0,0,1,0,0)">
</g>
<g transform="matrix(1,0,0,1,0,0)">
	<line vector-effect="none" class="st1" x1="253.7" y1="234.2" x2="260" y2="234.2"/>
</g>
<g transform="matrix(1,0,0,1,0,0)">
	<line vector-effect="none" class="st1" x1="253.7" y1="369.8" x2="260" y2="369.8"/>
</g>
<g transform="matrix(1,0,0,1,0,0)">
	<line vector-effect="none" class="st1" x1="168.1" y1="314.3" x2="163.7" y2="314.3"/>
</g>
<g transform="matrix(1,0,0,1,0,0)">
	<line vector-effect="none" class="st1" x1="169.9" y1="252.5" x2="169.9" y2="297.1"/>
</g>
<g transform="matrix(1,0,0,1,0,0)">
	<text transform="matrix(1 0 0 1 256.0449 367.0674)" class="st4 st5">RX &lt; 0</text>
</g>
<g transform="matrix(1,0,0,1,0,0)">
</g>
<g transform="matrix(1,0,0,1,0,0)">
	<text transform="matrix(1 0 0 1 268.7558 276.1211)" class="st4 st5">~9</text>
</g>
<g transform="matrix(1,0,0,1,0,0)">
</g>
<g transform="matrix(1,0,0,1,0,0)">
	<text transform="matrix(1 0 0 1 272.873 284.3554)" class="st4 st5">8</text>
</g>
<g transform="matrix(1,0,0,1,0,0)">
</g>
<g transform="matrix(1,0,0,1,0,0)">
	<text transform="matrix(1 0 0 1 272.873 304.2285)" class="st4 st5">7</text>
</g>
<g transform="matrix(1,0,0,1,0,0)">
</g>
<g transform="matrix(1,0,0,1,0,0)">
	<text transform="matrix(1 0 0 1 268.7558 312.4629)" class="st4 st5">~6</text>
</g>
<g transform="matrix(1,0,0,1,0,0)">
</g>
<g transform="matrix(1,0,0,1,0,0)">
	<text transform="matrix(1 0 0 1 268.7558 321.5937)" class="st4 st5">~5</text>
</g>
<g transform="matrix(1,0,0,1,0,0)">
</g>
<g transform="matrix(1,0,0,1,0,0)">
	<text transform="matrix(1 0 0 1 272.873 331.6191)" class="st4 st5">4</text>
</g>
<g transform="matrix(1,0,0,1,0,0)">
</g>
<g transform="matrix(1,0,0,1,0,0)">
	<text transform="matrix(1 0 0 1 268.7558 339.6748)" class="st4 st5">~3</text>
</g>
<g transform="matrix(1,0,0,1,0,0)">
</g>
<g transform="matrix(1,0,0,1,0,0)">
	<text transform="matrix(1 0 0 1 272.873 348.8056)" class="st4 st5">2</text>
</g>
<g transform="matrix(1,0,0,1,0,0)">
</g>
<g transform="matrix(1,0,0,1,0,0)">
	<text transform="matrix(1 0 0 1 256.4033 357.9365)" class="st4 st5">TX &gt; 1</text>
</g>
<g transform="matrix(1,0,0,1,0,0)">
</g>
<g transform="matrix(1,0,0,1,0,0)">
</g>
<g transform="matrix(1,0,0,1,0,0)">
</g>
<g transform="matrix(1,0,0,1,0,0)">
</g>
<g transform="matrix(1,0,0,1,0,0)">
</g>
<g transform="matrix(1,0,0,1,0,0)">
</g>
<g transform="matrix(1,0,0,1,0,0)">
</g>
<g transform="matrix(1,0,0,1,0,0)">
	<text transform="matrix(1 0 0 1 157.581 321.5937)" class="st4 st5">A0</text>
</g>
<g transform="matrix(1,0,0,1,0,0)">
</g>
<g transform="matrix(1,0,0,1,0,0)">
	<text transform="matrix(1 0 0 1 157.581 330.7256)" class="st4 st5">A1</text>
</g>
<g transform="matrix(1,0,0,1,0,0)">
</g>
<g transform="matrix(1,0,0,1,0,0)">
	<text transform="matrix(1 0 0 1 157.581 339.6748)" class="st4 st5">A2</text>
</g>
<g transform="matrix(1,0,0,1,0,0)">
</g>
<g transform="matrix(1,0,0,1,0,0)">
	<text transform="matrix(1 0 0 1 157.581 348.8056)" class="st4 st5">A3</text>
</g>
<g transform="matrix(1,0,0,1,0,0)">
</g>
<g transform="matrix(1,0,0,1,0,0)">
	<text transform="matrix(1 0 0 1 157.581 357.9365)" class="st4 st5">A4</text>
</g>
<g transform="matrix(1,0,0,1,0,0)">
</g>
<g transform="matrix(1,0,0,1,0,0)">
	<text transform="matrix(1 0 0 1 157.581 367.0674)" class="st4 st5">A5</text>
</g>
<g transform="matrix(1,0,0,1,0,0)">
</g>
<g transform="matrix(1,0,0,1,0,0)">
	<text transform="matrix(1 0 0 1 157.4013 248.1933)" class="st2 st3">RESET</text>
</g>
<g transform="matrix(1,0,0,1,0,0)">
</g>
<g transform="matrix(1,0,0,1,0,0)">
	<text transform="matrix(1 0 0 1 157.581 266.9912)" class="st4 st5">5V</text>
</g>
<g transform="matrix(1,0,0,1,0,0)">
</g>
<g transform="matrix(1,0,0,1,0,0)">
	<text transform="matrix(1 0 0 1 157.581 285.4306)" class="st4 st6">GND</text>
</g>
<g transform="matrix(1,0,0,1,0,0)">
</g>
<g transform="matrix(1,0,0,1,0,0)">
	<line vector-effect="none" class="st1" x1="168.1" y1="369.8" x2="163.7" y2="369.8"/>
</g>
<g transform="matrix(0,1,-1,0,5501,-969)">
	<text transform="matrix(1 0 0 1 1246.9111 5329.4561)" class="st2 st3">POWER</text>
</g>
<g transform="matrix(1,0,0,1,0,0)">
</g>
<g transform="matrix(1,0,0,1,0,0)">
	<line vector-effect="none" class="st1" x1="169.9" y1="252.5" x2="165.5" y2="252.5"/>
</g>
<g transform="matrix(1,0,0,1,0,0)">
	<line vector-effect="none" class="st1" x1="169.9" y1="297.1" x2="165.5" y2="297.1"/>
</g>
<g transform="matrix(1,0,0,1,0,0)">
	<line vector-effect="none" class="st7" x1="174.6" y1="243.4" x2="158.1" y2="243.4"/>
</g>
<g transform="matrix(1,0,0,1,0,0)">
	<path vector-effect="non-scaling-stroke" class="st8" d="M250.3,375.3c0,2.2-1.8,3.9-3.9,3.9c-2.2,0-3.9-1.8-3.9-3.9
		s1.8-3.9,3.9-3.9C248.6,371.4,250.3,373.1,250.3,375.3"/>
</g>
<g transform="matrix(1,0,0,1,0,0)">
	<path vector-effect="non-scaling-stroke" class="st8" d="M168.5,375.3c0,2.2-1.8,3.9-3.9,3.9c-2.2,0-3.9-1.8-3.9-3.9
		s1.8-3.9,3.9-3.9C166.7,371.4,168.5,373.1,168.5,375.3"/>
</g>
<g transform="matrix(1,0,0,1,0,0)">
	<path vector-effect="non-scaling-stroke" class="st8" d="M289.5,203.4c0,2.2-1.8,3.9-3.9,3.9s-3.9-1.8-3.9-3.9s1.8-3.9,3.9-3.9
		S289.5,201.3,289.5,203.4"/>
</g>
<g transform="matrix(1,0,0,1,0,0)">
	<path vector-effect="none" class="st1" d="M149.2,242.5h7.2v52.8h-7.2V242.5"/>
</g>
<g transform="matrix(1,0,0,1,0,0)">
	<path vector-effect="none" class="st0" d="M151,244.3h3.6v3.8H151V244.3"/>
</g>
<g transform="matrix(1,0,0,1,0,0)">
	<path vector-effect="none" class="st0" d="M151,253.4h3.6v3.6H151V253.4"/>
</g>
<g transform="matrix(1,0,0,1,0,0)">
	<path vector-effect="none" class="st0" d="M151,262.5h3.6v3.6H151V262.5"/>
</g>
<g transform="matrix(1,0,0,1,0,0)">
	<path vector-effect="none" class="st0" d="M151,271.6h3.6v3.6H151V271.6"/>
</g>
<g transform="matrix(1,0,0,1,0,0)">
	<path vector-effect="none" class="st0" d="M151,280.8h3.6v3.6H151V280.8"/>
</g>
<g transform="matrix(1,0,0,1,0,0)">
	<path vector-effect="none" class="st0" d="M151,289.7h3.6v3.8H151V289.7"/>
</g>
<g transform="matrix(1,0,0,1,0,0)">
	<path vector-effect="none" class="st1" d="M149.2,315.3h7.2V368h-7.2V315.3"/>
</g>
<g transform="matrix(1,0,0,1,0,0)">
	<path vector-effect="none" class="st0" d="M151,317.1h3.6v3.6H151V317.1"/>
</g>
<g transform="matrix(1,0,0,1,0,0)">
	<path vector-effect="none" class="st0" d="M151,326.2h3.6v3.6H151V326.2"/>
</g>
<g transform="matrix(1,0,0,1,0,0)">
	<path vector-effect="none" class="st0" d="M151,335.2h3.6v3.8H151V335.2"/>
</g>
<g transform="matrix(1,0,0,1,0,0)">
	<path vector-effect="none" class="st0" d="M151,344.3h3.6v3.6H151V344.3"/>
</g>
<g transform="matrix(1,0,0,1,0,0)">
	<path vector-effect="none" class="st0" d="M151,353.5h3.6v3.6H151V353.5"/>
</g>
<g transform="matrix(1,0,0,1,0,0)">
	<path vector-effect="none" class="st0" d="M151,362.6h3.6v3.6H151V362.6"/>
</g>
<g transform="matrix(1,0,0,1,0,0)">
	<path vector-effect="none" class="st1" d="M278.2,214.4h7.3V287h-7.3V214.4"/>
</g>
<g transform="matrix(1,0,0,1,0,0)">
	<path vector-effect="none" class="st0" d="M280,217h3.6v3.6H280V217"/>
</g>
<g transform="matrix(1,0,0,1,0,0)">
	<path vector-effect="none" class="st0" d="M280,235.3h3.6v3.6H280V235.3"/>
</g>
<g transform="matrix(1,0,0,1,0,0)">
	<path vector-effect="none" class="st0" d="M280,244.3h3.6v3.8H280V244.3"/>
</g>
<g transform="matrix(1,0,0,1,0,0)">
	<path vector-effect="none" class="st0" d="M280,253.4h3.6v3.6H280V253.4"/>
</g>
<g transform="matrix(1,0,0,1,0,0)">
	<path vector-effect="none" class="st0" d="M280,262.5h3.6v3.6H280V262.5"/>
</g>
<g transform="matrix(1,0,0,1,0,0)">
	<path vector-effect="none" class="st0" d="M280,271.6h3.6v3.6H280V271.6"/>
</g>
<g transform="matrix(1,0,0,1,0,0)">
	<path vector-effect="none" class="st0" d="M280,279.7h3.6v3.8H280V279.7"/>
</g>
<g transform="matrix(1,0,0,1,0,0)">
	<path vector-effect="none" class="st0" d="M280,226.2h3.6v3.6H280V226.2"/>
</g>
<g transform="matrix(1,0,0,1,0,0)">
	<path vector-effect="none" class="st1" d="M278.2,298h7.3v70h-7.3V298"/>
</g>
<g transform="matrix(1,0,0,1,0,0)">
	<path vector-effect="none" class="st0" d="M280,299.8h3.6v3.8H280V299.8"/>
</g>
<g transform="matrix(1,0,0,1,0,0)">
	<path vector-effect="none" class="st0" d="M280,308h3.6v3.6H280V308"/>
</g>
<g transform="matrix(1,0,0,1,0,0)">
	<path vector-effect="none" class="st0" d="M280,317.1h3.6v3.6H280V317.1"/>
</g>
<g transform="matrix(1,0,0,1,0,0)">
	<path vector-effect="none" class="st0" d="M280,326.2h3.6v3.6H280V326.2"/>
</g>
<g transform="matrix(1,0,0,1,0,0)">
	<path vector-effect="none" class="st0" d="M280,335.2h3.6v3.8H280V335.2"/>
</g>
<g transform="matrix(1,0,0,1,0,0)">
	<path vector-effect="none" class="st0" d="M280,344.3h3.6v3.6H280V344.3"/>
</g>
<g transform="matrix(1,0,0,1,0,0)">
	<path vector-effect="none" class="st0" d="M280,353.5h3.6v3.6H280V353.5"/>
</g>
<g transform="matrix(1,0,0,1,0,0)">
	<path vector-effect="none" class="st0" d="M280,362.6h3.6v3.6H280V362.6"/>
</g>
<g transform="matrix(0,-1,1,0,904,5872)">
	<text transform="matrix(1 0 0 1 5535.0088 -706.4112)" class="st4 st9">ATMEGA328P</text>
</g>
<g transform="matrix(1,0,0,1,0,0)">
</g>
<g transform="matrix(1,0,0,1,0,0)">
</g>
<g transform="matrix(1,0,0,1,0,0)">
	<path vector-effect="non-scaling-stroke" class="st8" d="M274.7,183.4c0,1.1-0.9,2-2,2s-2-0.9-2-2c0-1.1,0.9-2,2-2
		S274.7,182.3,274.7,183.4"/>
</g>
<g transform="matrix(1,0,0,1,0,0)">
	<path vector-effect="non-scaling-stroke" class="st8" d="M246.6,183.4c0,1.1-0.9,2-2,2s-2-0.9-2-2c0-1.1,0.9-2,2-2
		S246.6,182.3,246.6,183.4"/>
</g>
<g transform="matrix(1,0,0,1,0,0)">
	<path vector-effect="none" class="st7" d="M244.6,168h28.1v34.6h-28.1V168"/>
</g>
<g transform="matrix(1,0,0,1,0,0)">
	<path vector-effect="none" class="st7" d="M247.3,168.9H270v29.9h-22.7V168.9"/>
</g>
<g transform="matrix(1,0,0,1,0,0)">
	<line vector-effect="none" class="st8" x1="244.6" y1="202.5" x2="247.3" y2="198.8"/>
</g>
<g transform="matrix(1,0,0,1,0,0)">
	<line vector-effect="none" class="st8" x1="270" y1="198.8" x2="272.7" y2="202.5"/>
</g>
<g transform="matrix(1,0,0,1,0,0)">
	<line vector-effect="none" class="st8" x1="247.3" y1="168.9" x2="244.6" y2="168"/>
</g>
<g transform="matrix(1,0,0,1,0,0)">
	<line vector-effect="none" class="st8" x1="270" y1="168.9" x2="272.7" y2="168"/>
</g>
<g transform="matrix(1,0,0,1,0,0)">
	<path vector-effect="non-scaling-stroke" class="st8" d="M176.7,201.6c0,2.7-2.2,4.8-4.8,4.8c-2.7,0-4.8-2.2-4.8-4.8
		c0-2.7,2.2-4.8,4.8-4.8C174.6,196.8,176.7,199,176.7,201.6"/>
</g>
<g transform="matrix(1,0,0,1,0,0)">
	<path vector-effect="non-scaling-stroke" class="st8" d="M166.7,195.2c0,2.7-2.2,4.8-4.8,4.8s-4.8-2.2-4.8-4.8
		c0-2.7,2.2-4.8,4.8-4.8S166.7,192.5,166.7,195.2"/>
</g>
<g transform="matrix(1,0,0,1,0,0)">
	<path vector-effect="none" class="st7" d="M160.1,168h23.6v35.4h-23.6V168"/>
</g>
<g transform="matrix(1,0,0,1,0,0)">
	<path vector-effect="none" class="st0" d="M169.9,202.5h3.8v0.9h-3.8V202.5"/>
</g>
<g transform="matrix(1,0,0,1,0,0)">
	<path vector-effect="none" class="st0" d="M160.1,193.4h0.9v3.6h-0.9V193.4"/>
</g>
<g transform="matrix(1,0,0,1,0,0)">
	<path vector-effect="none" class="st0" d="M162.8,170.7h18.1v29.9h-18.1V170.7"/>
</g>
<g transform="matrix(1,0,0,1,0,0)">
	<path vector-effect="none" class="st0" d="M161,168.9h21.8v5.4H161V168.9"/>
</g>
<g transform="matrix(1,0,0,1,0,0)">
</g>
<g transform="matrix(1,0,0,1,0,0)">
</g>
<g transform="matrix(1,0,0,1,0,0)">
	<line vector-effect="none" class="st0" x1="307.4" y1="364.4" x2="285.6" y2="364.4"/>
</g>
<g transform="matrix(1,0,0,1,0,0)">
	<line vector-effect="none" class="st0" x1="303.7" y1="355.3" x2="285.6" y2="355.3"/>
</g>
<g transform="matrix(1,0,0,1,0,0)">
	<line vector-effect="none" class="st0" x1="303.7" y1="346.1" x2="285.6" y2="346.1"/>
</g>
<g transform="matrix(1,0,0,1,0,0)">
	<line vector-effect="none" class="st0" x1="303.7" y1="337" x2="285.6" y2="337"/>
</g>
<g transform="matrix(1,0,0,1,0,0)">
	<line vector-effect="none" class="st0" x1="303.7" y1="328" x2="285.6" y2="328"/>
</g>
<g transform="matrix(1,0,0,1,0,0)">
	<line vector-effect="none" class="st0" x1="303.7" y1="318.9" x2="285.6" y2="318.9"/>
</g>
<g transform="matrix(1,0,0,1,0,0)">
	<line vector-effect="none" class="st0" x1="303.7" y1="309.8" x2="285.6" y2="309.8"/>
</g>
<g transform="matrix(1,0,0,1,0,0)">
	<line vector-effect="none" class="st0" x1="303.7" y1="282.6" x2="285.6" y2="282.6"/>
</g>
<g transform="matrix(1,0,0,1,0,0)">
	<line vector-effect="none" class="st0" x1="303.7" y1="273.4" x2="285.6" y2="273.4"/>
</g>
<g transform="matrix(1,0,0,1,0,0)">
	<line vector-effect="none" class="st0" x1="303.7" y1="264.3" x2="285.6" y2="264.3"/>
</g>
<g transform="matrix(1,0,0,1,0,0)">
	<line vector-effect="none" class="st0" x1="303.7" y1="255.2" x2="285.6" y2="255.2"/>
</g>
<g transform="matrix(1,0,0,1,0,0)">
	<line vector-effect="none" class="st0" x1="303.7" y1="246" x2="285.6" y2="246"/>
</g>
<g transform="matrix(1,0,0,1,0,0)">
	<line vector-effect="none" class="st0" x1="303.7" y1="237.1" x2="285.6" y2="237.1"/>
</g>
<g transform="matrix(1,0,0,1,0,0)">
	<line vector-effect="none" class="st0" x1="303.7" y1="218.8" x2="285.6" y2="218.8"/>
</g>
<g transform="matrix(1,0,0,1,0,0)">
	<line vector-effect="none" class="st0" x1="130.9" y1="246" x2="149.2" y2="246"/>
</g>
<g transform="matrix(1,0,0,1,0,0)">
	<line vector-effect="none" class="st0" x1="303.7" y1="301.5" x2="285.6" y2="301.5"/>
</g>
<g transform="matrix(1,0,0,1,0,0)">
	<line vector-effect="none" class="st0" x1="130.9" y1="282.6" x2="149.2" y2="282.6"/>
</g>
<g transform="matrix(1,0,0,1,0,0)">
	<line vector-effect="none" class="st0" x1="130.9" y1="318.9" x2="149.2" y2="318.9"/>
</g>
<g transform="matrix(1,0,0,1,0,0)">
	<line vector-effect="none" class="st0" x1="130.9" y1="328" x2="149.2" y2="328"/>
</g>
<g transform="matrix(1,0,0,1,0,0)">
	<line vector-effect="none" class="st0" x1="130.9" y1="337" x2="149.2" y2="337"/>
</g>
<g transform="matrix(1,0,0,1,0,0)">
	<line vector-effect="none" class="st0" x1="130.9" y1="346.1" x2="149.2" y2="346.1"/>
</g>
<g transform="matrix(1,0,0,1,0,0)">
	<line vector-effect="none" class="st0" x1="130.9" y1="355.3" x2="149.2" y2="355.3"/>
</g>
<g transform="matrix(1,0,0,1,0,0)">
	<line vector-effect="none" class="st0" x1="130.9" y1="364.4" x2="149.2" y2="364.4"/>
</g>
<g transform="matrix(1,0,0,1,0,0)">
	<line vector-effect="none" class="st0" x1="130.9" y1="264.3" x2="149.2" y2="264.3"/>
</g>
<g transform="matrix(1,0,0,1,0,0)">
	<text transform="matrix(1 0 0 1 147.7984 225.1879)" class="st2 st10">ARDUINO UNO</text>
</g>
<g transform="matrix(1,0,0,1,0,0)">
</g>
<g transform="matrix(1,0,0,1,0,0)">
	<path vector-effect="none" class="st0" d="M65.4,127H70v27.2h-4.7V127"/>
</g>
<g transform="matrix(1,0,0,1,0,0)">
	<line vector-effect="none" class="st0" x1="65.4" y1="127" x2="60.9" y2="122.5"/>
</g>
<g transform="matrix(1,0,0,1,0,0)">
	<line vector-effect="none" class="st0" x1="65.4" y1="154.2" x2="60.9" y2="158.9"/>
</g>
<g transform="matrix(1,0,0,1,0,0)">
	<line vector-effect="none" class="st0" x1="60.9" y1="122.5" x2="60.9" y2="158.9"/>
</g>
<g transform="matrix(1,0,0,1,0,0)">
	<line vector-effect="none" class="st0" x1="79" y1="131.5" x2="70" y2="131.5"/>
</g>
<g transform="matrix(1,0,0,1,0,0)">
	<line vector-effect="none" class="st0" x1="79" y1="149.7" x2="70" y2="149.7"/>
</g>
<g transform="matrix(1,0,0,1,0,0)">
</g>
<g transform="matrix(1,0,0,1,0,0)">
	<text transform="matrix(1 0 0 1 72.9004 147.938)" class="st2 st10">SPEAKER</text>
</g>
<g transform="matrix(1,0,0,1,0,0)">
</g>
<g transform="matrix(1,0,0,1,0,0)">
	<path vector-effect="none" class="st0" d="M60.9,67.9h27.2v27.2H60.9V67.9"/>
</g>
<g transform="matrix(1,0,0,1,0,0)">
	<line vector-effect="none" class="st0" x1="42.6" y1="86" x2="60.9" y2="86"/>
</g>
<g transform="matrix(1,0,0,1,0,0)">
	<line vector-effect="none" class="st0" x1="42.6" y1="77" x2="60.9" y2="77"/>
</g>
<g transform="matrix(1,0,0,1,0,0)">
	<path vector-effect="none" class="st0" d="M224.5,40.5h127.3v63.7H224.5V40.5"/>
</g>
<g transform="matrix(1,0,0,1,0,0)">
	<path vector-effect="none" class="st0" d="M270.2,67.9c0,10.1-8.2,18.3-18.3,18.3c-10.1,0-18.3-8.2-18.3-18.3s8.2-18.3,18.3-18.3
		C262,49.7,270.2,57.8,270.2,67.9"/>
</g>
<g transform="matrix(1,0,0,1,0,0)">
	<path vector-effect="none" class="st0" d="M342.9,67.9c0,10.1-8.2,18.3-18.3,18.3s-18.3-8.2-18.3-18.3s8.2-18.3,18.3-18.3
		S342.9,57.8,342.9,67.9"/>
</g>
<g transform="matrix(1,0,0,1,0,0)">
	<path vector-effect="none" class="st0" d="M267.5,67.9c0,8.6-7,15.6-15.6,15.6c-8.6,0-15.6-7-15.6-15.6s7-15.6,15.6-15.6
		C260.5,52.3,267.5,59.3,267.5,67.9"/>
</g>
<g transform="matrix(1,0,0,1,0,0)">
	<path vector-effect="none" class="st0" d="M340.2,67.9c0,8.6-7,15.6-15.6,15.6c-8.6,0-15.6-7-15.6-15.6s7-15.6,15.6-15.6
		C333.2,52.3,340.2,59.3,340.2,67.9"/>
</g>
<g transform="matrix(1,0,0,1,0,0)">
	<path vector-effect="none" class="st11" d="M274.7,54.3h27.2v9h-27.2V54.3"/>
</g>
<g transform="matrix(1,0,0,1,0,0)">
</g>
<g transform="matrix(1,0,0,1,0,0)">
	<line vector-effect="none" class="st0" x1="279.1" y1="122.5" x2="279.1" y2="104.3"/>
</g>
<g transform="matrix(0,-1,1,0,2581,5123)">
	<text transform="matrix(1 0 0 1 5023.2212 -2298.9951)" class="st4 st12">TR</text>
</g>
<g transform="matrix(1,0,0,1,0,0)">
</g>
<g transform="matrix(0,-1,1,0,2506,5246)">
	<text transform="matrix(1 0 0 1 5128.4976 -2219.6992)" class="st4 st12">3</text>
</g>
<g transform="matrix(1,0,0,1,0,0)">
</g>
<g transform="matrix(1,0,0,1,0,0)">
	<line vector-effect="none" class="st0" x1="288.3" y1="122.5" x2="288.3" y2="104.3"/>
</g>
<g transform="matrix(0,-1,1,0,2632,5174)">
	<text transform="matrix(1 0 0 1 5074.2212 -2340.8662)" class="st4 st12">ECHO</text>
</g>
<g transform="matrix(1,0,0,1,0,0)">
</g>
<g transform="matrix(0,-1,1,0,2557,5297)">
	<text transform="matrix(1 0 0 1 5179.4976 -2261.5684)" class="st4 st12">2</text>
</g>
<g transform="matrix(1,0,0,1,0,0)">
</g>
<g transform="matrix(1,0,0,1,0,0)">
	<line vector-effect="none" class="st0" x1="297.4" y1="122.5" x2="297.4" y2="104.3"/>
</g>
<g transform="matrix(0,-1,1,0,2683,5225)">
	<text transform="matrix(1 0 0 1 5125.2212 -2382.7354)" class="st4 st12">VCC</text>
</g>
<g transform="matrix(1,0,0,1,0,0)">
</g>
<g transform="matrix(0,-1,1,0,2608,5348)">
	<text transform="matrix(1 0 0 1 5230.4976 -2303.4395)" class="st4 st12">1</text>
</g>
<g transform="matrix(1,0,0,1,0,0)">
</g>
<g transform="matrix(1,0,0,1,0,0)">
	<line vector-effect="none" class="st0" x1="270" y1="122.5" x2="270" y2="104.3"/>
</g>
<g transform="matrix(0,-1,1,0,2530,5072)">
	<text transform="matrix(1 0 0 1 4972.2212 -2257.127)" class="st4 st12">GND</text>
</g>
<g transform="matrix(1,0,0,1,0,0)">
</g>
<g transform="matrix(0,-1,1,0,2455,5195)">
	<text transform="matrix(1 0 0 1 5077.4976 -2177.8301)" class="st4 st12">5</text>
</g>
<g transform="matrix(1,0,0,1,0,0)">
</g>
<g transform="matrix(1,0,0,1,0,0)">
	<path vector-effect="none" class="st11" d="M301,72.4c0,2-1.6,3.6-3.6,3.6s-3.6-1.6-3.6-3.6c0-2,1.6-3.6,3.6-3.6S301,70.4,301,72.4
		"/>
</g>
<g transform="matrix(1,0,0,1,0,0)">
	<line vector-effect="none" class="st11" x1="297.4" y1="70.6" x2="296.5" y2="71.5"/>
</g>
<g transform="matrix(1,0,0,1,0,0)">
	<line vector-effect="none" class="st11" x1="297.4" y1="70.6" x2="298.3" y2="71.5"/>
</g>
<g transform="matrix(1,0,0,1,0,0)">
	<line vector-effect="none" class="st11" x1="297.4" y1="70.6" x2="297.4" y2="74.2"/>
</g>
<g transform="matrix(1,0,0,1,0,0)">
	<path vector-effect="none" class="st11" d="M282.7,72.4c0,2-1.6,3.6-3.6,3.6c-2,0-3.6-1.6-3.6-3.6c0-2,1.6-3.6,3.6-3.6
		C281.1,68.8,282.7,70.4,282.7,72.4"/>
</g>
<g transform="matrix(1,0,0,1,0,0)">
	<line vector-effect="none" class="st11" x1="279.1" y1="74.2" x2="278.2" y2="73.3"/>
</g>
<g transform="matrix(1,0,0,1,0,0)">
	<line vector-effect="none" class="st11" x1="279.1" y1="74.2" x2="280" y2="73.3"/>
</g>
<g transform="matrix(1,0,0,1,0,0)">
	<line vector-effect="none" class="st11" x1="279.1" y1="74.2" x2="279.1" y2="70.6"/>
</g>
<g transform="matrix(1,0,0,1,0,0)">
	<text transform="matrix(1 0 0 1 224.5365 16.1059)" class="st13"><tspan x="0" y="0" class="st2 st10">ULTRASONIC</tspan><tspan x="0" y="18" class="st2 st10">TRANSMITTER</tspan></text>
</g>
<g transform="matrix(1,0,0,1,0,0)">
</g>
<g transform="matrix(1,0,0,1,0,0)">
	<path vector-effect="none" class="st0" d="M33.5,195.2h63.7v163.6H33.5V195.2"/>
</g>
<g transform="matrix(1,0,0,1,0,0)">
	<line vector-effect="none" class="st0" x1="88.1" y1="377.1" x2="88.1" y2="358.8"/>
</g>
<g transform="matrix(0,-1,1,0,92,5478)">
	<text transform="matrix(1 0 0 1 5123.6436 -1.0176)" class="st4 st12">STATE</text>
</g>
<g transform="matrix(1,0,0,1,0,0)">
</g>
<g transform="matrix(1,0,0,1,0,0)">
	<line vector-effect="none" class="st0" x1="79" y1="377.1" x2="79" y2="358.8"/>
</g>
<g transform="matrix(0,-1,1,0,41,5427)">
	<text transform="matrix(1 0 0 1 5072.6436 40.8525)" class="st4 st12">RXD</text>
</g>
<g transform="matrix(1,0,0,1,0,0)">
</g>
<g transform="matrix(1,0,0,1,0,0)">
	<line vector-effect="none" class="st0" x1="70" y1="377.1" x2="70" y2="358.8"/>
</g>
<g transform="matrix(0,-1,1,0,-9,5377)">
	<text transform="matrix(1 0 0 1 5022.6436 81.9004)" class="st4 st12">TXD</text>
</g>
<g transform="matrix(1,0,0,1,0,0)">
</g>
<g transform="matrix(1,0,0,1,0,0)">
	<line vector-effect="none" class="st0" x1="60.9" y1="377.1" x2="60.9" y2="358.8"/>
</g>
<g transform="matrix(0,-1,1,0,-60,5326)">
	<text transform="matrix(1 0 0 1 4971.6436 123.7695)" class="st4 st12">GND</text>
</g>
<g transform="matrix(1,0,0,1,0,0)">
</g>
<g transform="matrix(1,0,0,1,0,0)">
	<line vector-effect="none" class="st0" x1="51.8" y1="377.1" x2="51.8" y2="358.8"/>
</g>
<g transform="matrix(0,-1,1,0,-111,5275)">
	<text transform="matrix(1 0 0 1 4920.6436 165.6406)" class="st4 st12">VCC</text>
</g>
<g transform="matrix(1,0,0,1,0,0)">
</g>
<g transform="matrix(1,0,0,1,0,0)">
	<line vector-effect="none" class="st0" x1="42.6" y1="377.1" x2="42.6" y2="358.8"/>
</g>
<g transform="matrix(0,-1,1,0,-162,5224)">
	<text transform="matrix(1 0 0 1 4869.6436 207.5087)" class="st4 st12">EN</text>
</g>
<g transform="matrix(1,0,0,1,0,0)">
</g>
<g transform="matrix(1,0,0,1,0,0)">
</g>
<g transform="matrix(1,0,0,1,0,0)">
	<text transform="matrix(6.447661e-03 1 -1 6.447661e-03 67.5614 202.5409)" class="st13"><tspan x="0" y="0" class="st2 st10">BLUETOOTH</tspan><tspan x="0" y="18" class="st2 st10">MODULE</tspan></text>
</g>
<g transform="matrix(1,0,0,1,0,0)">
</g>
<g transform="matrix(1,0,0,1,0,0)">
	<path vector-effect="none" class="st0" d="M124.5,31.6h82v72.7h-82V31.6"/>
</g>
<g transform="matrix(1,0,0,1,0,0)">
	<path vector-effect="none" class="st1" d="M147.2,45.2h50.1v45.5h-50.1V45.2"/>
</g>
<g transform="matrix(1,0,0,1,0,0)">
	<line vector-effect="non-scaling-stroke" class="st8" x1="147.2" y1="58.8" x2="197.3" y2="58.8"/>
</g>
<g transform="matrix(1,0,0,1,0,0)">
	<line vector-effect="non-scaling-stroke" class="st8" x1="147.2" y1="49.7" x2="197.3" y2="49.7"/>
</g>
<g transform="matrix(1,0,0,1,0,0)">
	<line vector-effect="non-scaling-stroke" class="st8" x1="165.5" y1="45.2" x2="165.5" y2="90.6"/>
</g>
<g transform="matrix(1,0,0,1,0,0)">
	<line vector-effect="non-scaling-stroke" class="st8" x1="169.9" y1="45.2" x2="169.9" y2="90.6"/>
</g>
<g transform="matrix(1,0,0,1,0,0)">
	<line vector-effect="non-scaling-stroke" class="st8" x1="174.6" y1="45.2" x2="174.6" y2="90.6"/>
</g>
<g transform="matrix(1,0,0,1,0,0)">
	<line vector-effect="non-scaling-stroke" class="st8" x1="179.1" y1="45.2" x2="179.1" y2="90.6"/>
</g>
<g transform="matrix(1,0,0,1,0,0)">
	<line vector-effect="non-scaling-stroke" class="st8" x1="183.7" y1="45.2" x2="183.7" y2="90.6"/>
</g>
<g transform="matrix(1,0,0,1,0,0)">
	<line vector-effect="non-scaling-stroke" class="st8" x1="188.2" y1="45.2" x2="188.2" y2="90.6"/>
</g>
<g transform="matrix(1,0,0,1,0,0)">
	<line vector-effect="non-scaling-stroke" class="st8" x1="192.7" y1="45.2" x2="192.7" y2="90.6"/>
</g>
<g transform="matrix(1,0,0,1,0,0)">
	<line vector-effect="non-scaling-stroke" class="st8" x1="147.2" y1="54.3" x2="197.3" y2="54.3"/>
</g>
<g transform="matrix(1,0,0,1,0,0)">
	<line vector-effect="non-scaling-stroke" class="st8" x1="147.2" y1="63.3" x2="197.3" y2="63.3"/>
</g>
<g transform="matrix(1,0,0,1,0,0)">
	<line vector-effect="non-scaling-stroke" class="st8" x1="147.2" y1="72.4" x2="197.3" y2="72.4"/>
</g>
<g transform="matrix(1,0,0,1,0,0)">
	<line vector-effect="non-scaling-stroke" class="st8" x1="147.2" y1="77" x2="197.3" y2="77"/>
</g>
<g transform="matrix(1,0,0,1,0,0)">
	<line vector-effect="non-scaling-stroke" class="st8" x1="147.2" y1="81.5" x2="197.3" y2="81.5"/>
</g>
<g transform="matrix(1,0,0,1,0,0)">
	<line vector-effect="non-scaling-stroke" class="st8" x1="147.2" y1="86" x2="197.3" y2="86"/>
</g>
<g transform="matrix(1,0,0,1,0,0)">
	<line vector-effect="non-scaling-stroke" class="st8" x1="156.3" y1="45.2" x2="156.3" y2="90.6"/>
</g>
<g transform="matrix(1,0,0,1,0,0)">
	<line vector-effect="non-scaling-stroke" class="st8" x1="151.9" y1="45.2" x2="151.9" y2="90.6"/>
</g>
<g transform="matrix(1,0,0,1,0,0)">
	<line vector-effect="non-scaling-stroke" class="st8" x1="161" y1="45.2" x2="161" y2="90.6"/>
</g>
<g transform="matrix(1,0,0,1,0,0)">
	<line vector-effect="none" class="st0" x1="147.2" y1="54.3" x2="151.9" y2="54.3"/>
</g>
<g transform="matrix(1,0,0,1,0,0)">
	<line vector-effect="none" class="st0" x1="151.9" y1="54.3" x2="151.9" y2="48.8"/>
</g>
<g transform="matrix(1,0,0,1,0,0)">
	<line vector-effect="none" class="st0" x1="151.9" y1="48.8" x2="156.3" y2="48.8"/>
</g>
<g transform="matrix(1,0,0,1,0,0)">
	<line vector-effect="none" class="st0" x1="156.3" y1="48.8" x2="156.3" y2="54.3"/>
</g>
<g transform="matrix(1,0,0,1,0,0)">
	<line vector-effect="none" class="st0" x1="156.3" y1="54.3" x2="161" y2="54.3"/>
</g>
<g transform="matrix(1,0,0,1,0,0)">
	<line vector-effect="none" class="st0" x1="161" y1="54.3" x2="161" y2="48.8"/>
</g>
<g transform="matrix(1,0,0,1,0,0)">
	<line vector-effect="none" class="st0" x1="161" y1="48.8" x2="165.5" y2="48.8"/>
</g>
<g transform="matrix(1,0,0,1,0,0)">
	<line vector-effect="none" class="st0" x1="165.5" y1="48.8" x2="165.5" y2="54.3"/>
</g>
<g transform="matrix(1,0,0,1,0,0)">
	<line vector-effect="none" class="st0" x1="165.5" y1="54.3" x2="169.9" y2="54.3"/>
</g>
<g transform="matrix(1,0,0,1,0,0)">
	<line vector-effect="none" class="st0" x1="169.9" y1="54.3" x2="169.9" y2="48.8"/>
</g>
<g transform="matrix(1,0,0,1,0,0)">
	<line vector-effect="none" class="st0" x1="169.9" y1="48.8" x2="174.6" y2="48.8"/>
</g>
<g transform="matrix(1,0,0,1,0,0)">
	<line vector-effect="none" class="st0" x1="174.6" y1="48.8" x2="174.6" y2="54.3"/>
</g>
<g transform="matrix(1,0,0,1,0,0)">
	<line vector-effect="none" class="st0" x1="174.6" y1="54.3" x2="179.1" y2="54.3"/>
</g>
<g transform="matrix(1,0,0,1,0,0)">
	<line vector-effect="none" class="st0" x1="179.1" y1="54.3" x2="179.1" y2="48.8"/>
</g>
<g transform="matrix(1,0,0,1,0,0)">
	<line vector-effect="none" class="st0" x1="179.1" y1="48.8" x2="183.7" y2="48.8"/>
</g>
<g transform="matrix(1,0,0,1,0,0)">
	<line vector-effect="none" class="st0" x1="183.7" y1="48.8" x2="183.7" y2="54.3"/>
</g>
<g transform="matrix(1,0,0,1,0,0)">
	<line vector-effect="none" class="st0" x1="183.7" y1="54.3" x2="188.2" y2="54.3"/>
</g>
<g transform="matrix(1,0,0,1,0,0)">
	<line vector-effect="none" class="st0" x1="188.2" y1="54.3" x2="188.2" y2="48.8"/>
</g>
<g transform="matrix(1,0,0,1,0,0)">
	<line vector-effect="none" class="st0" x1="188.2" y1="48.8" x2="192.7" y2="48.8"/>
</g>
<g transform="matrix(1,0,0,1,0,0)">
	<line vector-effect="none" class="st0" x1="192.7" y1="48.8" x2="192.7" y2="54.3"/>
</g>
<g transform="matrix(1,0,0,1,0,0)">
	<line vector-effect="none" class="st0" x1="192.7" y1="54.3" x2="197.3" y2="54.3"/>
</g>
<g transform="matrix(1,0,0,1,0,0)">
	<line vector-effect="none" class="st0" x1="147.2" y1="77" x2="151.9" y2="77"/>
</g>
<g transform="matrix(1,0,0,1,0,0)">
	<line vector-effect="none" class="st0" x1="151.9" y1="77" x2="151.9" y2="71.5"/>
</g>
<g transform="matrix(1,0,0,1,0,0)">
	<line vector-effect="none" class="st0" x1="151.9" y1="71.5" x2="156.3" y2="71.5"/>
</g>
<g transform="matrix(1,0,0,1,0,0)">
	<line vector-effect="none" class="st0" x1="156.3" y1="71.5" x2="156.3" y2="77"/>
</g>
<g transform="matrix(1,0,0,1,0,0)">
	<line vector-effect="none" class="st0" x1="156.3" y1="77" x2="161" y2="77"/>
</g>
<g transform="matrix(1,0,0,1,0,0)">
	<line vector-effect="none" class="st0" x1="161" y1="77" x2="161" y2="71.5"/>
</g>
<g transform="matrix(1,0,0,1,0,0)">
	<line vector-effect="none" class="st0" x1="161" y1="71.5" x2="165.5" y2="71.5"/>
</g>
<g transform="matrix(1,0,0,1,0,0)">
	<line vector-effect="none" class="st0" x1="165.5" y1="71.5" x2="165.5" y2="77"/>
</g>
<g transform="matrix(1,0,0,1,0,0)">
	<line vector-effect="none" class="st0" x1="165.5" y1="77" x2="169.9" y2="77"/>
</g>
<g transform="matrix(1,0,0,1,0,0)">
	<line vector-effect="none" class="st0" x1="169.9" y1="77" x2="169.9" y2="71.5"/>
</g>
<g transform="matrix(1,0,0,1,0,0)">
	<line vector-effect="none" class="st0" x1="169.9" y1="71.5" x2="174.6" y2="71.5"/>
</g>
<g transform="matrix(1,0,0,1,0,0)">
	<line vector-effect="none" class="st0" x1="174.6" y1="71.5" x2="174.6" y2="77"/>
</g>
<g transform="matrix(1,0,0,1,0,0)">
	<line vector-effect="none" class="st0" x1="174.6" y1="77" x2="179.1" y2="77"/>
</g>
<g transform="matrix(1,0,0,1,0,0)">
	<line vector-effect="none" class="st0" x1="179.1" y1="77" x2="179.1" y2="71.5"/>
</g>
<g transform="matrix(1,0,0,1,0,0)">
	<line vector-effect="none" class="st0" x1="179.1" y1="71.5" x2="183.7" y2="71.5"/>
</g>
<g transform="matrix(1,0,0,1,0,0)">
	<line vector-effect="none" class="st0" x1="183.7" y1="71.5" x2="183.7" y2="77"/>
</g>
<g transform="matrix(1,0,0,1,0,0)">
	<line vector-effect="none" class="st0" x1="183.7" y1="77" x2="188.2" y2="77"/>
</g>
<g transform="matrix(1,0,0,1,0,0)">
	<line vector-effect="none" class="st0" x1="188.2" y1="77" x2="188.2" y2="71.5"/>
</g>
<g transform="matrix(1,0,0,1,0,0)">
	<line vector-effect="none" class="st0" x1="188.2" y1="71.5" x2="192.7" y2="71.5"/>
</g>
<g transform="matrix(1,0,0,1,0,0)">
	<line vector-effect="none" class="st0" x1="192.7" y1="71.5" x2="192.7" y2="77"/>
</g>
<g transform="matrix(1,0,0,1,0,0)">
	<line vector-effect="none" class="st0" x1="192.7" y1="77" x2="197.3" y2="77"/>
</g>
<g transform="matrix(1,0,0,1,0,0)">
	<line vector-effect="none" class="st0" x1="148.1" y1="65.2" x2="147.2" y2="64.2"/>
</g>
<g transform="matrix(1,0,0,1,0,0)">
	<line vector-effect="none" class="st0" x1="148.1" y1="65.2" x2="151.9" y2="59.7"/>
</g>
<g transform="matrix(1,0,0,1,0,0)">
	<line vector-effect="none" class="st0" x1="151.9" y1="59.7" x2="155.4" y2="65.2"/>
</g>
<g transform="matrix(1,0,0,1,0,0)">
	<line vector-effect="none" class="st0" x1="155.4" y1="65.2" x2="159" y2="59.7"/>
</g>
<g transform="matrix(1,0,0,1,0,0)">
	<line vector-effect="none" class="st0" x1="159" y1="59.7" x2="162.8" y2="65.2"/>
</g>
<g transform="matrix(1,0,0,1,0,0)">
	<line vector-effect="none" class="st0" x1="162.8" y1="65.2" x2="166.4" y2="59.7"/>
</g>
<g transform="matrix(1,0,0,1,0,0)">
	<line vector-effect="none" class="st0" x1="166.4" y1="59.7" x2="169.9" y2="65.2"/>
</g>
<g transform="matrix(1,0,0,1,0,0)">
	<line vector-effect="none" class="st0" x1="169.9" y1="65.2" x2="173.7" y2="59.7"/>
</g>
<g transform="matrix(1,0,0,1,0,0)">
	<line vector-effect="none" class="st0" x1="173.7" y1="59.7" x2="177.3" y2="65.2"/>
</g>
<g transform="matrix(1,0,0,1,0,0)">
	<line vector-effect="none" class="st0" x1="177.3" y1="65.2" x2="180.9" y2="59.7"/>
</g>
<g transform="matrix(1,0,0,1,0,0)">
	<line vector-effect="none" class="st0" x1="180.9" y1="59.7" x2="184.6" y2="65.2"/>
</g>
<g transform="matrix(1,0,0,1,0,0)">
	<line vector-effect="none" class="st0" x1="184.6" y1="65.2" x2="188.2" y2="59.7"/>
</g>
<g transform="matrix(1,0,0,1,0,0)">
	<line vector-effect="none" class="st0" x1="188.2" y1="59.7" x2="191.8" y2="65.2"/>
</g>
<g transform="matrix(1,0,0,1,0,0)">
	<line vector-effect="none" class="st0" x1="191.8" y1="65.2" x2="195.5" y2="59.7"/>
</g>
<g transform="matrix(1,0,0,1,0,0)">
	<line vector-effect="none" class="st0" x1="195.5" y1="59.7" x2="197.3" y2="62.4"/>
</g>
<g transform="matrix(1,0,0,1,0,0)">
	<line vector-effect="non-scaling-stroke" class="st8" x1="147.2" y1="67.9" x2="197.3" y2="67.9"/>
</g>
<g transform="matrix(1,0,0,1,0,0)">
	<path vector-effect="none" class="st0" d="M147.2,84.2c0,0,0.9-1.8,2-1.8"/>
</g>
<g transform="matrix(1,0,0,1,0,0)">
	<path vector-effect="none" class="st0" d="M149.2,82.4c0.9,0,1.8,1.8,1.8,1.8"/>
</g>
<g transform="matrix(1,0,0,1,0,0)">
	<path vector-effect="none" class="st0" d="M151,84.2c0,0,0.7,1.8,1.8,1.8"/>
</g>
<g transform="matrix(1,0,0,1,0,0)">
	<path vector-effect="none" class="st0" d="M152.7,86c1.1,0,1.8-1.8,1.8-1.8"/>
</g>
<g transform="matrix(1,0,0,1,0,0)">
	<path vector-effect="none" class="st0" d="M154.5,84.2c0,0,0.7-1.8,1.8-1.8"/>
</g>
<g transform="matrix(1,0,0,1,0,0)">
	<path vector-effect="none" class="st0" d="M156.3,82.4c1.1,0,1.8,1.8,1.8,1.8"/>
</g>
<g transform="matrix(1,0,0,1,0,0)">
	<path vector-effect="none" class="st0" d="M158.1,84.2c0,0,0.9,1.8,2,1.8"/>
</g>
<g transform="matrix(1,0,0,1,0,0)">
	<path vector-effect="none" class="st0" d="M160.1,86c0.9,0,1.8-1.8,1.8-1.8"/>
</g>
<g transform="matrix(1,0,0,1,0,0)">
	<path vector-effect="none" class="st0" d="M161.9,84.2c0,0,0.7-1.8,1.8-1.8"/>
</g>
<g transform="matrix(1,0,0,1,0,0)">
	<path vector-effect="none" class="st0" d="M163.7,82.4c1.1,0,1.8,1.8,1.8,1.8"/>
</g>
<g transform="matrix(1,0,0,1,0,0)">
	<path vector-effect="none" class="st0" d="M165.5,84.2c0,0,0.7,1.8,1.8,1.8"/>
</g>
<g transform="matrix(1,0,0,1,0,0)">
	<path vector-effect="none" class="st0" d="M167.2,86c1.1,0,1.8-1.8,1.8-1.8"/>
</g>
<g transform="matrix(1,0,0,1,0,0)">
	<path vector-effect="none" class="st0" d="M169,84.2c0,0,0.9-1.8,1.8-1.8"/>
</g>
<g transform="matrix(1,0,0,1,0,0)">
	<path vector-effect="none" class="st0" d="M170.8,82.4c1.1,0,2,1.8,2,1.8"/>
</g>
<g transform="matrix(1,0,0,1,0,0)">
	<path vector-effect="none" class="st0" d="M172.8,84.2c0,0,0.7,1.8,1.8,1.8"/>
</g>
<g transform="matrix(1,0,0,1,0,0)">
	<path vector-effect="none" class="st0" d="M174.6,86c1.1,0,1.8-1.8,1.8-1.8"/>
</g>
<g transform="matrix(1,0,0,1,0,0)">
	<path vector-effect="none" class="st0" d="M176.4,84.2c0,0,0.7-1.8,1.8-1.8"/>
</g>
<g transform="matrix(1,0,0,1,0,0)">
	<path vector-effect="none" class="st0" d="M178.2,82.4c1.1,0,1.8,1.8,1.8,1.8"/>
</g>
<g transform="matrix(1,0,0,1,0,0)">
	<path vector-effect="none" class="st0" d="M180,84.2c0,0,0.9,1.8,1.8,1.8"/>
</g>
<g transform="matrix(1,0,0,1,0,0)">
	<path vector-effect="none" class="st0" d="M181.7,86c1.1,0,2-1.8,2-1.8"/>
</g>
<g transform="matrix(1,0,0,1,0,0)">
	<path vector-effect="none" class="st0" d="M183.7,84.2c0,0,0.7-1.8,1.8-1.8"/>
</g>
<g transform="matrix(1,0,0,1,0,0)">
	<path vector-effect="none" class="st0" d="M185.5,82.4c0.9,0,1.8,1.8,1.8,1.8"/>
</g>
<g transform="matrix(1,0,0,1,0,0)">
	<path vector-effect="none" class="st0" d="M187.3,84.2c0,0,0.7,1.8,1.8,1.8"/>
</g>
<g transform="matrix(1,0,0,1,0,0)">
	<path vector-effect="none" class="st0" d="M189.1,86c1.1,0,1.8-1.8,1.8-1.8"/>
</g>
<g transform="matrix(1,0,0,1,0,0)">
	<path vector-effect="none" class="st0" d="M190.9,84.2c0,0,0.9-1.8,1.8-1.8"/>
</g>
<g transform="matrix(1,0,0,1,0,0)">
	<path vector-effect="none" class="st0" d="M192.7,82.4c1.1,0,2,1.8,2,1.8"/>
</g>
<g transform="matrix(1,0,0,1,0,0)">
	<path vector-effect="none" class="st0" d="M194.6,84.2c0,0,0.7,1.8,1.8,1.8"/>
</g>
<g transform="matrix(1,0,0,1,0,0)">
	<path vector-effect="none" class="st0" d="M196.4,86c0.9-1.8,0,0,0.9-1.8"/>
</g>
<g transform="matrix(1,0,0,1,0,0)">
	<line vector-effect="none" class="st0" x1="106.4" y1="40.5" x2="124.5" y2="40.5"/>
</g>
<g transform="matrix(1,0,0,1,0,0)">
	<text transform="matrix(1 0 0 1 129.1142 43.3852)" class="st4 st12">A</text>
</g>
<g transform="matrix(1,0,0,1,0,0)">
</g>
<g transform="matrix(1,0,0,1,0,0)">
	<line vector-effect="none" class="st0" x1="106.4" y1="58.8" x2="124.5" y2="58.8"/>
</g>
<g transform="matrix(1,0,0,1,0,0)">
	<text transform="matrix(1 0 0 1 129.1142 61.6469)" class="st4 st12">B</text>
</g>
<g transform="matrix(1,0,0,1,0,0)">
</g>
<g transform="matrix(1,0,0,1,0,0)">
	<line vector-effect="none" class="st0" x1="106.4" y1="77" x2="124.5" y2="77"/>
</g>
<g transform="matrix(1,0,0,1,0,0)">
	<text transform="matrix(1 0 0 1 129.1142 79.9067)" class="st4 st12">C</text>
</g>
<g transform="matrix(1,0,0,1,0,0)">
</g>
<g transform="matrix(1,0,0,1,0,0)">
	<line vector-effect="none" class="st0" x1="106.4" y1="95.1" x2="124.5" y2="95.1"/>
</g>
<g transform="matrix(1,0,0,1,0,0)">
	<text transform="matrix(1 0 0 1 129.1142 97.9887)" class="st4 st12">D</text>
</g>
<g transform="matrix(1,0,0,1,0,0)">
</g>
<g transform="matrix(1,0,0,1,0,0)">
	<path vector-effect="none" class="st14" d="M190,149.7c0,1-0.8,1.8-1.8,1.8s-1.8-0.8-1.8-1.8s0.8-1.8,1.8-1.8S190,148.7,190,149.7"
		/>
</g>
<g transform="matrix(1,0,0,1,0,0)">
	<path vector-effect="none" class="st14" d="M162.8,158.9c0,1-0.8,1.8-1.8,1.8c-1,0-1.8-0.8-1.8-1.8s0.8-1.8,1.8-1.8
		C162,157.1,162.8,157.9,162.8,158.9"/>
</g>
<g transform="matrix(1,0,0,1,0,0)">
	<path vector-effect="none" class="st14" d="M208.2,149.7c0,1-0.8,1.8-1.8,1.8s-1.8-0.8-1.8-1.8s0.8-1.8,1.8-1.8
		S208.2,148.7,208.2,149.7"/>
</g>
<g transform="matrix(1,0,0,1,0,0)">
	<path vector-effect="none" class="st14" d="M126.3,176.9c0,1-0.8,1.8-1.8,1.8s-1.8-0.8-1.8-1.8s0.8-1.8,1.8-1.8
		S126.3,176,126.3,176.9"/>
</g>
<g transform="matrix(1,0,0,1,0,0)">
	<path vector-effect="none" class="st14" d="M89.9,176.9c0,1-0.8,1.8-1.8,1.8c-1,0-1.8-0.8-1.8-1.8s0.8-1.8,1.8-1.8
		C89.1,175.1,89.9,176,89.9,176.9"/>
</g>
<g transform="matrix(1,0,0,1,0,0)">
	<path vector-effect="none" class="st14" d="M35.3,77c0,1-0.8,1.8-1.8,1.8c-1,0-1.8-0.8-1.8-1.8s0.8-1.8,1.8-1.8
		C34.5,75.3,35.3,76.1,35.3,77"/>
</g>
<g transform="matrix(1,0,0,1,0,0)">
	<path vector-effect="none" class="st14" d="M108.2,176.9c0,1-0.8,1.8-1.8,1.8s-1.8-0.8-1.8-1.8s0.8-1.8,1.8-1.8
		S108.2,176,108.2,176.9"/>
</g>
<g transform="matrix(1,0,0,1,0,0)">
	<path vector-effect="none" class="st14" d="M126.3,282.6c0,1-0.8,1.8-1.8,1.8s-1.8-0.8-1.8-1.8s0.8-1.8,1.8-1.8
		S126.3,281.6,126.3,282.6"/>
</g>
<text transform="matrix(1 0 0 1 85.5533 27.041)" class="st2 st10">OSCILLOSCOPE</text>
<text transform="matrix(1 0 0 1 35.3054 64.1531)" class="st2 st10">RECEIVER</text>
</svg>
